<?xml version="1.0" encoding="utf-8"?>
<!-- Generator: Adobe Illustrator 16.0.0, SVG Export Plug-In . SVG Version: 6.00 Build 0)  -->
<!DOCTYPE svg PUBLIC "-//W3C//DTD SVG 1.1//EN" "http://www.w3.org/Graphics/SVG/1.1/DTD/svg11.dtd">
<svg version="1.1" xmlns="http://www.w3.org/2000/svg" xmlns:xlink="http://www.w3.org/1999/xlink" x="0px" y="0px"
	 width="841.89px" height="595.28px" viewBox="0 0 841.89 595.28" enable-background="new 0 0 841.89 595.28" xml:space="preserve">
<g id="Home_Screen" display="none">
	<g id="Body" display="inline">
		<g id="Left_Arm">
			<path display="none" fill="#FDD4BA" stroke="#000000" stroke-width="0.75" stroke-miterlimit="10" d="M519.366,285.268"/>
			<path fill="#FDD4BA" stroke="#000000" stroke-width="0.75" stroke-miterlimit="10" d="M526.699,287.292
				c-2.23-2.068-2.731-5.641-1.119-7.979l7.058-10.236c1.611-2.338,4.727-2.556,6.956-0.488l0,0c2.229,2.069,2.73,5.641,1.118,7.979
				l-7.058,10.238C532.042,289.144,528.928,289.361,526.699,287.292L526.699,287.292z"/>
			<g id="Layer_11">
				<path fill="#FDD4BA" stroke="#000000" stroke-miterlimit="10" d="M535.456,287.835l-1.208-1.429
					c-0.771,0.297-1.633,0.461-2.58,0.461c-2.26,0-4.014-0.929-5.266-2.369c-2.524-1.42-3.901-4.399-4.127-7.521l-0.807-0.257
					h-2.993l-0.494,7.621c0.113-2.887-0.108-11.054-5.961-13.775c-7.156-3.327-8.561,3.659-7.999,4.99
					c0.563,1.331,3.789,7.311,3.93,17.877c0.141,10.568,3.204,5.578,3.005,9.403c-0.198,3.826,4.091,4.657,4.091,4.657l11.849,3.991
					c0,0,2.104-0.499,3.93-3.326c1.824-2.827,6.6-10.349,7.956-13.294C540.136,291.918,535.456,287.835,535.456,287.835z"/>
			</g>
			<path fill="#FDD4BA" stroke="#000000" stroke-miterlimit="10" d="M525.323,311.795c-0.398,0.104-0.803,0.125-1.259-0.021
				c-0.696-0.223-1.301-0.765-1.666-1.488c-0.201-0.397-0.313-0.876-0.345-1.37c-0.062-0.267-0.106-0.542-0.106-0.83
				c0-0.294,0.047-0.575,0.113-0.849c-0.248-0.159-0.519-0.329-0.788-0.498c-0.116,0.273-0.224,0.566-0.319,0.88
				c-0.446,1.456-0.866,2.907-1.707,4.132c-2.53,3.688-5.935,5.812-8.282,9.864c-1.994,3.445-6.831,0.208-4.817-3.268
				c1.25-2.159,2.534-4.549,4.272-6.237c1.507-1.466,3.25-2.607,4.352-4.436c-0.364,0.206-0.767,0.331-1.193,0.331
				c-1.521,0-2.79-1.472-2.79-3.237v-1.699c0-0.021,0.006-0.043,0.006-0.064c-7.553,13.6-29.479,17.048-29.479,17.048
				s-1.845,7.777-1.984,26.712c28.444-1.302,44.04-29.111,47.022-34.979C526.01,311.85,525.666,311.855,525.323,311.795z"/>
			<path fill="#FDD4BA" stroke="#000000" stroke-width="0.75" stroke-miterlimit="10" d="M516.098,278.909l0.339-0.766"/>
			<path display="none" fill="#FDD4BA" stroke="#000000" stroke-width="0.75" stroke-miterlimit="10" d="M524.549,283.944
				c-1.179,2.662-4.026,3.695-6.359,2.304l0,0c-2.111-1.257-3.079-4.067-2.371-6.562"/>
			<path fill="#FDD4BA" stroke="#000000" stroke-width="0.75" stroke-miterlimit="10" d="M527.621,264.943
				c-2.335-1.39-5.46,0.271-6.982,3.709l-3.351,7.569c0.574,0.87,0.718,2.083,0.447,3.135c0.313-0.146,0.667-0.238,1.073-0.238
				c1.508,0,2.376,1.141,2.62,2.462c1.157,0.164,1.879,1.048,2.164,2.119c0.312,0.139,0.58,0.338,0.806,0.581l4.69-10.596
				C530.612,270.246,529.953,266.333,527.621,264.943z"/>
			<path display="none" fill="#FDD4BA" stroke="#000000" stroke-width="0.75" stroke-miterlimit="10" d="M538.626,294.667
				l-1.681,1.998c-1.8,2.143-4.553,2.42-6.144,0.616l0,0c-1.592-1.8-1.422-4.999,0.381-7.141l1.889-2.245"/>
			
				<line fill="#FDD4BA" stroke="#000000" stroke-width="0.75" stroke-miterlimit="10" x1="539.388" y1="293.762" x2="538.626" y2="294.667"/>
			<path fill="#FDD4BA" stroke="#000000" stroke-width="0.75" stroke-miterlimit="10" d="M533.071,287.896l6.003-7.136
				c1.802-2.143,4.553-2.419,6.146-0.618l0,0c1.589,1.802,1.42,4.998-0.383,7.141l-5.45,6.48"/>
			<polygon fill="#FDD4BA" points="511.354,329.38 500.368,317.643 515.935,298.032 526.921,309.771 			"/>
			<rect x="518.303" y="276.72" fill="#FDD4BA" width="6.332" height="9.637"/>
			<polygon fill="#FDD4BA" points="536.494,296.56 531.857,291.858 537.324,284.602 541.961,289.304 			"/>
			<polygon fill="#FDD4BA" points="530.174,291.416 525.237,287.142 530.204,279.418 535.141,283.69 			"/>
			<g id="Layer_10">
				<g>
					<path d="M518.53,281.454c-0.001,0,1.462,0.264,3.409,1.04c0.49,0.188,1.02,0.397,1.554,0.655
						c0.542,0.248,1.118,0.5,1.681,0.814c0.563,0.312,1.177,0.588,1.744,0.954c0.577,0.351,1.163,0.706,1.75,1.062
						c0.565,0.389,1.131,0.777,1.687,1.16c0.563,0.372,1.07,0.813,1.586,1.198c0.518,0.383,0.982,0.809,1.433,1.198
						c0.456,0.381,0.861,0.779,1.236,1.147c1.51,1.455,2.353,2.677,2.354,2.676l-0.109,0.168c0,0-4.635-2.934-9.27-5.868
						c-4.582-3.018-9.163-6.036-9.163-6.036L518.53,281.454z"/>
				</g>
			</g>
			<line fill="none" x1="512.288" y1="301.603" x2="512.288" y2="301.603"/>
			<polygon fill="#FDD4BA" points="517.119,279.58 515.863,279.942 515.417,277.862 516.672,277.498 			"/>
			<polygon fill="#FDD4BA" points="512.949,304.051 511.288,306.265 510.167,305.13 511.828,302.917 			"/>
		</g>
		<g id="Right_Arm">
			<g id="Layer_6">
				<path fill="#FDD4BA" stroke="#000000" stroke-miterlimit="10" d="M338.4,437.718c0,0,8.162,6.901,10.776-3.022
					c-1.86-8.2-8.184-14.674-8.184-14.674L338.4,437.718z"/>
			</g>
			<path fill="#FDD4BA" stroke="#000000" stroke-miterlimit="10" d="M344.34,346.115c0,0-18.601,15.646-10.044,60.097
				c-2.604,5.178-10.826,30.209-2.25,40.565c3.366,0,5.971,0.862,7.086-16.83c2.604-4.746,4.092-8.631,7.44-8.631
				c3.348,2.157,9.672,8.632,14.322,0c0.558-2.589-0.186-6.043-2.79-5.611c-3.348-4.315-4.092-9.492-7.812-12.514
				c0.372-7.337-0.895-24.365,7.737-33.544C356.245,361.329,344.34,346.115,344.34,346.115z"/>
		</g>
		<g id="Legs">
			<polygon fill="#FDD4BA" stroke="#000000" stroke-miterlimit="10" points="389.4,490.937 391.957,523.896 418.788,523.896 
				418.368,493.333 			"/>
			<polygon fill="#FDD4BA" stroke="#000000" stroke-miterlimit="10" points="421.832,493.333 421.832,523.896 445.269,523.896 
				448.616,490.937 			"/>
		</g>
		<g id="Trousers">
			<path fill="#D8E2D7" stroke="#000000" stroke-miterlimit="10" d="M371.038,402.28c0,0-2.011,20.599,14.851,46.033
				c-0.154,14.305,0,58.02,0,58.02h33.261v-45.306V402.28H371.038z"/>
			<g id="Left_leg">
				<path fill="#D8E2D7" stroke="#000000" stroke-miterlimit="10" d="M455.555,414.88c0,0-1.048,32.117-5.24,45.726
					c-0.523,21.991,0,45.728,0,45.728h-31.335V414.88H455.555z"/>
			</g>
			<rect x="388.284" y="415.802" fill="#D8E2D7" width="58.542" height="35.146"/>
			<line fill="none" stroke="#000000" stroke-miterlimit="10" x1="388.284" y1="486.142" x2="417.833" y2="486.741"/>
			
				<line display="none" fill="none" stroke="#000000" stroke-miterlimit="10" x1="430.692" y1="486.142" x2="461.149" y2="486.741"/>
			<line fill="none" stroke="#000000" stroke-miterlimit="10" x1="450.556" y1="485.842" x2="424.226" y2="486.441"/>
		</g>
		<g id="Feet">
			<path stroke="#000000" stroke-miterlimit="10" d="M417.438,532.086c0,0-35.341-4.731-40.734,12.169
				c-0.558,2.929-0.743,9.015,4.092,12.395c8.556,0,34.41,0,34.41,0s6.324-2.639,5.952-12.587
				C421.53,539.523,421.158,537.27,417.438,532.086z"/>
			<path stroke="#000000" stroke-miterlimit="10" d="M422.878,532.086c0,0,36.237-4.731,41.768,12.169
				c0.572,2.929,0.763,9.015-4.196,12.395c-8.772,0-35.28,0-35.28,0s-6.485-2.639-6.104-12.587
				C418.684,539.523,419.065,537.27,422.878,532.086z"/>
		</g>
		<g id="Socks">
			<rect x="391.957" y="523.896" fill="#6CDD66" stroke="#000000" stroke-miterlimit="10" width="26.832" height="8.19"/>
			<rect x="421.832" y="523.896" fill="#6CDD66" stroke="#000000" stroke-miterlimit="10" width="23.623" height="8.19"/>
		</g>
		<g id="Face">
			<path display="none" fill="#FDD4BA" stroke="#000000" stroke-miterlimit="10" d="M478.139,218.697
				c-10.144-22.156-43.262-18.002-46.436,2.77c-5.944-6.231-26.023-24.233-59.257-9.693c-5.539,3.462-24.926,32.885-6.231,56.254
				c-9.693-4.326-20.079-12.984-28.388,0c-1.385,7.445-2.77,19.908,13.848,20.6c0,0,0.188,16.346,13.262,28.996
				c2.29,0.926,4.441,2.141,6.396,3.611c2.85,1.43,5.438,3.323,7.649,5.592c6.872,2.951,15.465,4.935,26.237,5.25
				c53.082,1.556,67.59-15.517,70.722-32.252c3.133-16.736-3.791-31.276-3.791-31.276S488.282,240.854,478.139,218.697z"/>
			<rect x="368.833" y="199.947" display="none" fill="#FDD4BA" width="11.833" height="37.667"/>
			<rect x="361.167" y="246.884" display="none" fill="#FDD4BA" width="11.833" height="37.667"/>
			<path display="none" fill="#895B42" stroke="#000000" stroke-miterlimit="10" d="M446.315,162.797
				c-19.191-1.458-49.399,1.001-80.579,22.391c-0.564-4.313-2.308-7.975-2.308-7.975l-6.504,12.264l-12.676,6.66l8.318,1.884
				c0,0-23.411,29.867-7.393,63.81c8.476-0.961,12.348,0.678,17.205,5.94c4.325-20.454,9.036-41.6,1.286-44.879
				C371.283,234.725,368.72,246,368.72,246s7.082-26.454,1.366-32.612c6.109,14.472,3.979-6.337,3.979-6.337
				s28.015,19.375,48.573,17.651c-3.832-5.919-20.815-14.7-20.815-14.7s34.607,20.452,52.387,20.003
				c-3.38-4.468-18.947-19.593-18.947-19.593s22.536,24.07,42.354,25.872c0,0,0.889,7.897-4.442,14.741
				c8.134-2.408,2.762,12.28-3.068,18.382c12.436-7.879,22.847-17.296,22.12-35.174c4.663,13.813,6.9,11.795,5.293,21.695
				c3.968-32.603-1.842-43.624-1.842-43.624s9.195,8.352,13.325,15.715c-0.923-18.603-11.338-47.001-27.828-56.469
				c0,0,11.405-1.918,16.187-0.119C480.876,165.149,459.128,163.771,446.315,162.797z"/>
			<g display="none">
				<path display="inline" d="M384.396,233.68c0,0,1.781-0.572,4.453-0.976c0.667-0.108,1.391-0.22,2.157-0.293
					c0.765-0.085,1.572-0.187,2.407-0.228c0.835-0.043,1.698-0.144,2.574-0.145c0.877-0.019,1.768-0.038,2.658-0.057
					c0.891,0.02,1.781,0.04,2.658,0.059c0.876,0.007,1.739,0.102,2.574,0.146c0.835,0.041,1.642,0.146,2.407,0.229
					c0.766,0.072,1.489,0.187,2.157,0.292c2.671,0.403,4.453,0.972,4.453,0.972v0.2c0,0-7.125,0.05-14.25,0.1
					c-7.125-0.05-14.249-0.1-14.249-0.1V233.68z"/>
			</g>
			<g display="none">
				<path display="inline" d="M431.293,233.68c0,0,1.781-0.572,4.453-0.976c0.668-0.108,1.392-0.22,2.156-0.293
					c0.766-0.085,1.572-0.187,2.407-0.228c0.835-0.043,1.698-0.144,2.574-0.145c0.877-0.019,1.768-0.038,2.658-0.057
					c0.891,0.02,1.781,0.04,2.658,0.059c0.876,0.007,1.739,0.102,2.574,0.146c0.835,0.041,1.642,0.146,2.407,0.229
					c0.765,0.072,1.488,0.187,2.156,0.292c2.672,0.403,4.453,0.972,4.453,0.972v0.2c0,0-7.125,0.05-14.249,0.1
					c-7.124-0.05-14.249-0.1-14.249-0.1V233.68z"/>
			</g>
			<g id="Eyes" display="none">
				<g id="Left_Eye" display="inline">
					<path fill="#FFFFFF" stroke="#000000" stroke-miterlimit="10" d="M433.588,265.985c-1.194-2.416-1.879-5.227-1.879-8.227
						c0-9.021,6.193-16.333,13.833-16.333s13.833,7.313,13.833,16.333c0,3.485-0.924,6.714-2.499,9.366"/>
					<path fill="#62DDF9" d="M443.848,264.465c-0.463-1.257-0.652-2.683-0.493-4.165c0.479-4.457,3.927-7.742,7.702-7.336
						s6.447,4.348,5.969,8.805c-0.185,1.722-0.813,3.269-1.731,4.496"/>
					<g>
						<path d="M430.718,266.5c0,0,0.438-0.211,1.202-0.475c0.764-0.265,1.855-0.606,3.159-0.871c0.653-0.144,1.36-0.292,2.105-0.382
							c0.746-0.107,1.533-0.233,2.346-0.293c0.813-0.069,1.652-0.129,2.505-0.144c0.852-0.034,1.716-0.015,2.58-0.005
							c0.864,0.038,1.729,0.07,2.578,0.15c0.85,0.054,1.684,0.206,2.491,0.299c0.809,0.083,1.587,0.263,2.327,0.407
							c0.739,0.129,1.438,0.32,2.08,0.496c1.289,0.335,2.359,0.734,3.107,1.039c0.748,0.304,1.174,0.537,1.174,0.537l-0.008,0.3
							c0,0-1.729-0.015-4.323-0.038c-2.593-0.052-6.051-0.122-9.509-0.191c-3.456-0.12-6.912-0.24-9.504-0.33
							c-2.592-0.12-4.319-0.199-4.319-0.199L430.718,266.5z"/>
					</g>
				</g>
				<g id="Right_Eye" display="inline">
					<path fill="#FFFFFF" stroke="#000000" stroke-miterlimit="10" d="M390.044,265.843c-1.195-2.416-1.88-5.227-1.88-8.227
						c0-9.021,6.193-16.333,13.833-16.333c7.64,0,13.833,7.313,13.833,16.333c0,3.485-0.924,6.714-2.499,9.366"/>
					<path fill="#62DDF9" d="M400.303,264.323c-0.462-1.257-0.652-2.683-0.493-4.165c0.479-4.457,3.927-7.742,7.702-7.336
						c3.775,0.405,6.448,4.348,5.969,8.805c-0.185,1.722-0.813,3.269-1.732,4.496"/>
					<g>
						<path d="M387.173,266.357c0,0,0.438-0.211,1.203-0.475c0.764-0.265,1.854-0.606,3.159-0.871
							c0.653-0.144,1.36-0.292,2.105-0.382c0.746-0.107,1.533-0.233,2.346-0.293c0.813-0.069,1.652-0.129,2.504-0.144
							c0.852-0.034,1.716-0.015,2.581-0.005c0.864,0.038,1.728,0.07,2.577,0.15c0.85,0.054,1.684,0.206,2.492,0.299
							c0.809,0.083,1.587,0.263,2.327,0.407c0.74,0.129,1.438,0.32,2.081,0.496c1.289,0.335,2.358,0.734,3.107,1.039
							c0.749,0.304,1.174,0.537,1.174,0.537l-0.008,0.3c0,0-1.729-0.015-4.324-0.038c-2.593-0.052-6.051-0.122-9.508-0.191
							c-3.457-0.12-6.913-0.24-9.505-0.33c-2.591-0.12-4.319-0.199-4.319-0.199L387.173,266.357z"/>
					</g>
				</g>
			</g>
			<g id="Mouth" display="none">
				<path display="inline" stroke="#000000" stroke-miterlimit="10" d="M390.081,293.244c0,0,38,15,51.5,12
					C423.58,312.744,402.081,323.244,390.081,293.244z"/>
				<path display="inline" fill="#ED294F" stroke="#000000" stroke-miterlimit="10" d="M410.361,312.554
					c0.57-0.035,1.142-0.06,1.719-0.06c0.803,0,1.596,0.043,2.383,0.112c-3.086-10.75-20.102-11.885-20.102-11.885
					C398.582,309.315,401.201,309.469,410.361,312.554z"/>
				<g display="inline">
					<path d="M410.083,309.833c0,0-2.416-1.381-4.78-2.838c-0.594-0.361-1.206-0.695-1.751-1.049
						c-0.536-0.369-1.009-0.754-1.4-1.103c-0.787-0.692-1.235-1.267-1.235-1.267l0.057-0.082c0,0,0.698,0.207,1.629,0.688
						c0.468,0.238,0.998,0.537,1.536,0.902c0.529,0.379,1.063,0.828,1.615,1.248c2.219,1.672,4.386,3.418,4.386,3.418
						L410.083,309.833z"/>
				</g>
				<path display="inline" fill="#FFFFFF" stroke="#000000" stroke-miterlimit="10" d="M391.557,296.624
					c0,0,38.271,13.501,42.951,11.563c4.68-1.939,7.072-2.942,7.072-2.942s-19.75,0.5-51.5-12
					C390.869,295.117,391.557,296.624,391.557,296.624z"/>
				<path display="inline" fill="none" stroke="#000000" stroke-miterlimit="10" d="M425.139,250.858c0,0,0,18.724,5.462,25.745
					c1.171,4.291,0.001,7.411-2.73,10.142c-2.731,2.731-10.922,0-10.922,0"/>
				<path display="inline" fill="none" stroke="#000000" stroke-miterlimit="10" d="M347.172,278.28c0,0-2.838-14.271,9.162-4"/>
			</g>
			<g id="Hair" display="none">
				<path fill="#7C4D27" stroke="#000000" stroke-miterlimit="10" d="M388.525,189.165c0,0-22.266-2.067-38.804,19.641
					c9.542-5.168,19.402-9.847,19.402-9.847s-42.302,18.635-32.76,54.815c1.908-4.652,2.545-11.372,2.545-11.372
					s1.906,8.788,6.996,11.372c3.181-7.237,8.906-14.99,8.906-25.327"/>
				<path fill="#7C4D27" stroke="#000000" stroke-miterlimit="10" d="M339.545,245.504c0,0,2.543,5.169,0,12.922
					c-2.544,7.753,0,16.541,3.816,23.259c0.635-7.752,2.544-18.09,2.544-18.09s-5.726,10.337,7.633,24.809
					c0.637-16.539,5.725-21.19,0-34.629c3.816,7.753,5.065,21.771,2.692,25.843c8.758-8.786,13.21-7.753,16.391-40.316
					c0,0,2.389,7.388,0,12.406c5.089-11.888,5.727-31.53,15.904-37.732c1.271,6.72,12.721,20.674,27.988,24.81
					c-9.542-6.719-22.265-14.99-24.809-24.81c3.816,6.203,24.17,20.675,30.535,23.777c-7.635-11.372-19.085-19.125-19.085-23.777
					c27.989,37.215,47.708,62.026,59.157,63.06c-15.266-13.44-26.077-30.497-27.351-36.182c6.359,7.753,13.994,15.507,19.082,20.675
					c-4.452-8.787-25.443-67.817-50.251-72.416c19.084,10.391,46.435,62.596,58.52,70.865c5.726,5.686,22.266,18.608,12.724,33.597
					c7.634-6.203,14.713-12.922,2.902-42.384c-4.811-9.304-6.083-25.896-6.083-29.747c2.546,11.656,10.816,49.905,15.903,55.591
					c3.18-13.44,23.537-31.013-20.991-81.149c11.45,10.337,9.541,6.202,15.266,11.887c-6.997-11.887-33.077-47.034-84.603-24.293
					c9.542-5.685,27.834-14.811,36.896-10.336c-27.354-1.035-38.167,2.994-45.8,15.969"/>
			</g>
		</g>
	</g>
	<g id="Face_and_Hair" display="inline">
		<path fill="#FDD4BA" stroke="#000000" stroke-miterlimit="10" d="M397.839,279.291c0,0,2.881,23.167,2.135,36.5
			s27.413,6.5,27.413,6.5s-1.16-15.5,3.007-37C417.895,284.458,397.839,279.291,397.839,279.291z"/>
		<path fill="#BA3F15" stroke="#000000" stroke-miterlimit="10" d="M397.839,267.184c0,0,4.305,28.742,0.055,41.863
			c-0.75-9.686-0.055-22.807-0.055-22.807s-3.695,34.678-11.945,41.551c6.25-22.181,8.75-41.551,8.75-41.551
			s-2.75,12.809-13.25,26.867c1-13.746,9.188-47.798,9.188-47.798s-0.438,35.302-19.688,49.048
			c5.5-9.997,14.438-46.549,14.438-46.549s-4.688,40.926-22.438,49.048c8.5-15.308,15.75-51.547,15.75-51.547s2,22.181-10.75,31.241
			c2-6.248,6-17.807,6-17.807s-3,19.682-16,24.368c3.5-5.311,15-28.117,13-46.549s6.75-3.749,6.75-3.749l12,2.812l5.5,4.999
			L397.839,267.184z"/>
		<path fill="#BA3F15" stroke="#000000" stroke-miterlimit="10" d="M429.395,288.041c0,0-6,20.75,2.75,28
			c-0.75-6.75,0-24.75,0-24.75s0.75,23.25,12.25,31c-1.5-9.5-7-32.75-7-32.75s3,21.5,11.75,28c-2.25-7.25-4.5-19.25-4.5-19.25
			s1.25,12.75,7.5,18.25c-1.75-8.75-4-32-4-32s-1,14.25,17.5,33.5c-5.25-10.75-10-35-10-35s2.25,20.25,17.75,24
			c-8-10.25-17-23.25-13-39.75c-10-2.25-14.5,2.5-14.5,2.5l-15.5,15.5L429.395,288.041z"/>
		<path fill="#FDD4BA" stroke="#000000" stroke-miterlimit="10" d="M372.043,199.791h87.186c0,0,2.667,50-6,70
			c-11.334,16-26,23.333-32,23.333c-6-2-24-5.333-34-24C378.562,253.791,372.043,199.791,372.043,199.791z"/>
		<path fill="#FFFFFF" stroke="#000000" stroke-miterlimit="10" d="M431.971,239.829c-0.892-1.803-1.402-3.901-1.402-6.14
			c0-6.733,4.622-12.191,10.324-12.191s10.325,5.458,10.325,12.191c0,2.601-0.689,5.012-1.865,6.991"/>
		<path fill="#62DDF9" d="M435.628,237.695c-0.345-0.938-0.486-2.002-0.367-3.109c0.356-3.327,2.931-5.778,5.748-5.476
			c2.818,0.302,4.813,3.245,4.455,6.571c-0.138,1.286-0.606,2.44-1.292,3.355"/>
		<g>
			<path d="M429.829,240.175c0,0,0.329-0.214,0.901-0.483c0.572-0.27,1.389-0.619,2.364-0.892c1.954-0.628,4.545-0.958,7.125-0.89
				c0.645,0.032,1.29,0.058,1.923,0.132c0.634,0.06,1.257,0.154,1.859,0.266c0.602,0.107,1.184,0.245,1.734,0.39
				c0.551,0.142,1.07,0.327,1.55,0.498c0.959,0.326,1.755,0.717,2.312,1.017c0.557,0.299,0.873,0.529,0.873,0.529l-0.008,0.3
				c0,0-1.292,0.012-3.228-0.008c-1.936-0.034-4.517-0.08-7.098-0.125c-2.579-0.096-5.159-0.192-7.094-0.264
				c-1.934-0.086-3.223-0.169-3.223-0.169L429.829,240.175z"/>
		</g>
		<path fill="#FFFFFF" stroke="#000000" stroke-miterlimit="10" d="M399.47,239.723c-0.892-1.803-1.403-3.901-1.403-6.14
			c0-6.733,4.623-12.191,10.326-12.191c5.701,0,10.324,5.458,10.324,12.191c0,2.601-0.69,5.012-1.865,6.991"/>
		<path fill="#62DDF9" d="M403.127,237.589c-0.346-0.938-0.486-2.002-0.367-3.109c0.356-3.327,2.931-5.778,5.748-5.476
			c2.818,0.303,4.813,3.245,4.456,6.572c-0.139,1.286-0.607,2.44-1.293,3.355"/>
		<g>
			<path d="M397.328,240.069c0,0,0.329-0.214,0.901-0.483c0.572-0.27,1.389-0.619,2.364-0.892c1.954-0.628,4.545-0.958,7.126-0.89
				c0.645,0.032,1.29,0.058,1.923,0.132c0.634,0.06,1.257,0.154,1.859,0.266c0.602,0.107,1.184,0.245,1.734,0.39
				c0.551,0.142,1.07,0.327,1.549,0.498c0.96,0.326,1.756,0.717,2.313,1.017c0.557,0.299,0.873,0.529,0.873,0.529l-0.008,0.3
				c0,0-1.292,0.012-3.229-0.008c-1.936-0.034-4.516-0.08-7.098-0.126c-2.579-0.096-5.158-0.191-7.094-0.263
				c-1.934-0.086-3.223-0.169-3.223-0.169L397.328,240.069z"/>
		</g>
		<path stroke="#000000" stroke-miterlimit="10" d="M399.975,261.215c0,0,32.138,12.686,43.555,10.148
			C428.307,277.707,410.123,286.587,399.975,261.215z"/>
		<path fill="#ED294F" stroke="#000000" stroke-miterlimit="10" d="M417.127,277.546c0.482-0.03,0.966-0.051,1.453-0.051
			c0.68,0,1.351,0.037,2.017,0.095c-2.611-9.091-17.001-10.051-17.001-10.051C407.164,274.807,409.38,274.937,417.127,277.546z"/>
		<g>
			<path d="M416.887,275.251c0,0-2.063-1.141-4.073-2.356c-0.506-0.3-1.029-0.573-1.492-0.872c-0.453-0.312-0.848-0.643-1.173-0.947
				c-0.655-0.602-1.015-1.116-1.015-1.116l0.057-0.083c0,0,0.609,0.147,1.408,0.538c0.401,0.192,0.854,0.439,1.311,0.748
				c0.446,0.322,0.891,0.71,1.354,1.071c1.865,1.43,3.68,2.935,3.68,2.934L416.887,275.251z"/>
		</g>
		<path fill="#FFFFFF" stroke="#000000" stroke-miterlimit="10" d="M401.224,264.073c0,0,32.366,11.418,36.324,9.779
			c3.958-1.641,5.981-2.489,5.981-2.489s-16.703,0.423-43.555-10.148C400.643,262.799,401.224,264.073,401.224,264.073z"/>
		<path fill="none" stroke="#000000" stroke-miterlimit="10" d="M429.624,225.369c0,0,0,15.835,4.619,21.773
			c0.99,3.629,0.001,6.268-2.309,8.577c-2.311,2.31-9.238,0-9.238,0"/>
		<path fill="#BA3F15" stroke="#000000" stroke-miterlimit="10" d="M455.895,193.791c0,0-11,24-17,25c2-8,13.75-21.5,13.5-25
			c-9.5,14.5-12.5,25.5-35.75,33.5c6-4.25,30.5-24,30.75-30.25c-5,6.75-21,24.75-40,30.25c9.25-5.5,32.75-21.25,35-29.25
			c-8,9-21.5,20.75-26.75,22c6.5-5.75,21.25-17,20.25-21.75c-6,9-26.5,26.25-38,27.5c11.5-8.25,24.5-23,25.25-26.5
			c-3.25,5.25-25.25,28-29.25,28c6.25-6.5,23.5-32.25,23.75-36.5c-6.75,12.5-25.5,38.5-30.75,39.75c5.5-10,19.5-34,19-39.75
			c-9.25,17.5-20.75,34.5-22,43c1.5-12.25,17.5-41.75,17.5-41.75s-26.25,20.5-14,58.75c-5.5-13.25-8-46.25,3.5-56
			c-6.25,9.75-10,32.75-6.5,52.25c-4.25-14.75-8.75-39.5,2-51s16.25-16,16.25-16l17.5-2.75l15.75,1.5l11,6.25L455.895,193.791z"/>
		<path fill="#BA3F15" stroke="#000000" stroke-miterlimit="10" d="M448.895,174.791c0,0,42,11,13,101c3-21,6-50.5,6-50.5
			s4,36.5-14,50.5c0-6,15-55-5-80s-51,3-51,3l-23,20v-20c0,0,3,74,18,91c-7-5-24-40-25-57.5c7,35.5,11,43.5,20,57.5
			c-10-8-21-19-26-49c11,44,11,47,20,54c-20-30-34-40-26-84C359.895,199.791,392.895,145.791,448.895,174.791z"/>
		<path fill="#6CDD66" stroke="#000000" stroke-miterlimit="10" d="M372.645,216.791c0,0,17.75-37,58.25-31c3,1,24,7.25,30,26.5
			c1.25,8.25,3.5,17,0,23.5c-2-8.75-3-17.75-5.75-21s-11-13-19.25-14.5s-21.75-2.25-30,1.5s-20.75,9.5-25.75,25.25
			c-0.75,4.5-2.25,17-1.25,22.25C374.895,239.791,370.395,228.291,372.645,216.791z"/>
	</g>
	<g id="T-Shirt" display="inline">
		<polygon display="none" fill="#FFFFFF" stroke="#000000" stroke-miterlimit="10" points="462.833,324.778 484.333,322.445 
			485,350.278 468.167,352.612 462.192,324.724 		"/>
		<path display="none" fill="#FFFFFF" stroke="#000000" stroke-miterlimit="10" d="M374.577,350.229c0,0-1.91,39.051-5.744,47.884
			c8.333,0.166,101.167-0.334,106.333-2.834c0.166-6-6.001-62.334-12.334-70.5c-6.666-0.833-52,4.334-52,4.334l-24.167-0.167
			l-11.167,1.833L374.577,350.229z"/>
		<path display="none" fill="#FFFFFF" stroke="#000000" stroke-miterlimit="10" d="M382,335.28c0,0-18-37-39,0
			c10,14,19.5,23,19.5,23l10.002-6.669l2.805-1.87L382,345.28"/>
		<g id="T-Shirt_1_">
			<path id="Left_Sleeve_2_" fill="#1FE8D9" stroke="#000000" stroke-miterlimit="10" d="M431.318,311.112
				c0,0,24.725,1.938,28.011,6.78c3.606,3.353,24.801,0,24.801,0s0.321,35.763-1.927,42.842c-6.743,1.117-25.387,1.117-27.786,0"/>
			<path id="Main_2_" fill="#1FE8D9" stroke="#000000" stroke-miterlimit="10" d="M379.048,306.979c0,0-7.639,8.808-15.788,10.12
				c-8.148,1.313-21.899,10.74-23.936,25.254c4.283,7.413,19.862,30.176,19.862,30.176l12.302-10.563c0,0-2.709,52.43-5.851,62.817
				c11.376,0.026,94.612,1.466,96.665-2.108c0.015-10.134-5.842-89.831-10.171-98.688"/>
			<rect x="416.229" y="308.984" fill="#FDD4BA" width="9.486" height="40.79"/>
			<polygon fill="#1FE8D9" points="450.473,347.43 436.406,354.304 423.661,319.207 437.727,312.332 			"/>
			<path id="Left_Collar_2_" fill="#1FE8D9" stroke="#000000" stroke-miterlimit="10" d="M423.896,318.269
				c0,0-1.309-14.634,2.257-16.945c3.566-2.309,14.979-3.464,15.455-6.546c1.188,5.008,2.821,11.062,1.455,14.303
				C441.526,311.036,427.582,318.269,423.896,318.269z"/>
			<rect x="405.349" y="317.742" fill="#1FE8D9" width="12.829" height="46.823"/>
			<polygon fill="#1FE8D9" points="412.935,364.991 400.255,362.728 406.397,316.448 419.077,318.712 			"/>
			<rect x="421.588" y="321.734" fill="#1FE8D9" width="18.729" height="38.085"/>
			<path id="Right_Collar_2_" fill="#1FE8D9" stroke="#000000" stroke-miterlimit="10" d="M386.158,291.884
				c0,0,28.101,4.658,30.356,13.591c2.256,8.931,2.395,13.397,2.395,13.397s-40.366-6.538-40.24-16.299
				C383.707,295.812,386.158,291.884,386.158,291.884z"/>
			<g id="Layer_21">
				<polyline fill="#1FE8D9" stroke="#000000" stroke-miterlimit="10" points="425.716,317.954 421.588,319.685 418.908,356.335 
									"/>
				<polygon fill="#1FE8D9" points="421.521,380.135 408.713,379.287 411.012,332.539 423.82,333.386 				"/>
				<polyline fill="#1FE8D9" stroke="#000000" stroke-miterlimit="10" points="418.178,318.75 423.887,321.247 423.498,347.91 				
					"/>
				<polygon fill="#1FE8D9" points="419.29,368.482 406.481,367.635 408.78,320.887 421.588,321.734 				"/>
				<path stroke="#1FE8D9" stroke-miterlimit="10" d="M421.339,329.577c-0.08,1.13-0.935,1.969-1.907,1.876
					s-1.695-1.083-1.615-2.212c0.08-1.128,0.934-1.967,1.906-1.874S421.419,328.45,421.339,329.577z"/>
				<path stroke="#1FE8D9" stroke-miterlimit="10" d="M420.838,339.936c-0.08,1.128-0.934,1.968-1.906,1.876
					c-0.973-0.094-1.696-1.084-1.616-2.213c0.08-1.128,0.935-1.968,1.907-1.873C420.195,337.817,420.918,338.807,420.838,339.936z"
					/>
			</g>
		</g>
		<g id="Shorts">
		</g>
	</g>
</g>
<g id="Question_x2F__Information">
	<path display="none" fill="#FDD4BA" stroke="#000000" stroke-miterlimit="10" d="M377.306,315.02c0,0,2.881,23.167,2.135,36.5
		s27.413,6.5,27.413,6.5s-1.16-15.5,3.007-37C397.361,320.187,377.306,315.02,377.306,315.02z"/>
	<path fill="#BA3F15" stroke="#000000" stroke-miterlimit="10" d="M377.306,302.912c0,0,4.305,28.741,0.055,41.863
		c-0.75-9.686-0.055-22.807-0.055-22.807s-3.695,34.678-11.945,41.551c6.25-22.181,8.75-41.551,8.75-41.551
		s-2.75,12.809-13.25,26.867c1-13.746,9.188-47.798,9.188-47.798s-0.438,35.302-19.688,49.048c5.5-9.997,14.438-46.55,14.438-46.55
		s-4.688,40.927-22.438,49.049c8.5-15.308,15.75-51.547,15.75-51.547s2,22.181-10.75,31.24c2-6.248,6-17.807,6-17.807
		s-3,19.682-16,24.367c3.5-5.311,15-28.117,13-46.549s6.75-3.749,6.75-3.749l12,2.812l5.5,4.999L377.306,302.912z"/>
	<path fill="#BA3F15" stroke="#000000" stroke-miterlimit="10" d="M408.861,323.77c0,0-6,20.75,2.75,28c-0.75-6.75,0-24.75,0-24.75
		s0.75,23.25,12.25,31c-1.5-9.5-7-32.75-7-32.75s3,21.5,11.75,28c-2.25-7.25-4.5-19.25-4.5-19.25s1.25,12.75,7.5,18.25
		c-1.75-8.75-4-32-4-32s-1,14.25,17.5,33.5c-5.25-10.75-10-35-10-35s2.25,20.25,17.75,24c-8-10.25-17-23.25-13-39.75
		c-10-2.25-14.5,2.5-14.5,2.5l-15.5,15.5L408.861,323.77z"/>
	<path fill="#FDD4BA" stroke="#000000" stroke-miterlimit="10" d="M351.51,235.52h87.186c0,0,2.667,50-6,70
		c-11.334,16-26,23.333-32,23.333c-6-2-24-5.333-34-24C358.028,289.52,351.51,235.52,351.51,235.52z"/>
	<path fill="#FFFFFF" stroke="#000000" stroke-miterlimit="10" d="M411.438,275.558c-0.892-1.803-1.402-3.901-1.402-6.141
		c0-6.732,4.622-12.19,10.324-12.19s10.325,5.458,10.325,12.19c0,2.602-0.689,5.012-1.865,6.991"/>
	<path fill="#62DDF9" d="M420.095,274.423c-0.345-0.938-0.486-2.002-0.367-3.108c0.356-3.327,2.931-5.778,5.748-5.476
		c2.818,0.303,4.813,3.245,4.455,6.571c-0.138,1.286-0.606,2.44-1.292,3.355"/>
	<g>
		<path d="M409.296,275.903c0,0,0.329-0.213,0.901-0.482s1.389-0.619,2.364-0.893c1.954-0.627,4.545-0.957,7.125-0.89
			c0.645,0.032,1.29,0.058,1.923,0.132c0.634,0.061,1.257,0.154,1.859,0.267c0.602,0.106,1.184,0.245,1.734,0.39
			c0.551,0.143,1.07,0.327,1.55,0.498c0.959,0.326,1.755,0.717,2.312,1.017c0.557,0.299,0.873,0.528,0.873,0.528l-0.008,0.301
			c0,0-1.292,0.012-3.228-0.008c-1.936-0.035-4.517-0.08-7.098-0.126c-2.579-0.097-5.159-0.192-7.094-0.264
			c-1.934-0.087-3.223-0.169-3.223-0.169L409.296,275.903z"/>
	</g>
	<path fill="#FFFFFF" stroke="#000000" stroke-miterlimit="10" d="M378.937,275.452c-0.892-1.804-1.403-3.902-1.403-6.141
		c0-6.732,4.623-12.191,10.326-12.191c5.701,0,10.324,5.459,10.324,12.191c0,2.602-0.69,5.012-1.865,6.99"/>
	<path fill="#62DDF9" d="M387.594,274.317c-0.346-0.938-0.486-2.002-0.367-3.109c0.356-3.326,2.931-5.777,5.748-5.476
		c2.818,0.303,4.813,3.245,4.456,6.571c-0.139,1.286-0.607,2.44-1.293,3.355"/>
	<g>
		<path d="M376.795,275.798c0,0,0.329-0.214,0.901-0.482c0.572-0.271,1.389-0.619,2.364-0.893c1.954-0.628,4.545-0.958,7.126-0.891
			c0.645,0.033,1.29,0.059,1.923,0.133c0.634,0.061,1.257,0.154,1.859,0.266c0.602,0.107,1.184,0.245,1.734,0.391
			c0.551,0.143,1.07,0.326,1.549,0.498c0.96,0.326,1.756,0.717,2.313,1.016s0.873,0.529,0.873,0.529l-0.008,0.3
			c0,0-1.292,0.012-3.229-0.008c-1.936-0.034-4.516-0.08-7.098-0.126c-2.579-0.096-5.158-0.191-7.094-0.264
			c-1.934-0.086-3.223-0.169-3.223-0.169L376.795,275.798z"/>
	</g>
	<path stroke="#000000" stroke-miterlimit="10" d="M379.441,296.944c0,0,32.138,12.686,43.555,10.148
		C407.773,313.436,389.59,322.315,379.441,296.944z"/>
	<path fill="#ED294F" stroke="#000000" stroke-miterlimit="10" d="M396.594,313.274c0.482-0.029,0.966-0.051,1.453-0.051
		c0.68,0,1.351,0.037,2.017,0.096c-2.611-9.092-17.001-10.052-17.001-10.052C386.631,310.536,388.847,310.665,396.594,313.274z"/>
	<g>
		<path d="M396.354,310.979c0,0-2.063-1.141-4.073-2.355c-0.506-0.301-1.029-0.574-1.492-0.872
			c-0.453-0.312-0.848-0.644-1.173-0.946c-0.655-0.602-1.015-1.116-1.015-1.116l0.057-0.083c0,0,0.609,0.147,1.408,0.537
			c0.401,0.193,0.854,0.439,1.311,0.748c0.446,0.322,0.891,0.711,1.354,1.071c1.865,1.43,3.68,2.935,3.68,2.935L396.354,310.979z"/>
	</g>
	<path fill="#FFFFFF" stroke="#000000" stroke-miterlimit="10" d="M380.69,299.802c0,0,32.366,11.418,36.324,9.779
		c3.958-1.641,5.981-2.488,5.981-2.488s-16.703,0.422-43.555-10.148C380.109,298.527,380.69,299.802,380.69,299.802z"/>
	<path fill="none" stroke="#000000" stroke-miterlimit="10" d="M409.091,261.097c0,0,0,15.836,4.619,21.773
		c0.99,3.629,0.001,6.268-2.309,8.577c-2.311,2.31-9.238,0-9.238,0"/>
	<path fill="#BA3F15" stroke="#000000" stroke-miterlimit="10" d="M435.361,229.52c0,0-11,24-17,25c2-8,13.75-21.5,13.5-25
		c-9.5,14.5-12.5,25.5-35.75,33.5c6-4.25,30.5-24,30.75-30.25c-5,6.75-21,24.75-40,30.25c9.25-5.5,32.75-21.25,35-29.25
		c-8,9-21.5,20.75-26.75,22c6.5-5.75,21.25-17,20.25-21.75c-6,9-26.5,26.25-38,27.5c11.5-8.25,24.5-23,25.25-26.5
		c-3.25,5.25-25.25,28-29.25,28c6.25-6.5,23.5-32.25,23.75-36.5c-6.75,12.5-25.5,38.5-30.75,39.75c5.5-10,19.5-34,19-39.75
		c-9.25,17.5-20.75,34.5-22,43c1.5-12.25,17.5-41.75,17.5-41.75s-26.25,20.5-14,58.75c-5.5-13.25-8-46.25,3.5-56
		c-6.25,9.75-10,32.75-6.5,52.25c-4.25-14.75-8.75-39.5,2-51s16.25-16,16.25-16l17.5-2.75l15.75,1.5l11,6.25L435.361,229.52z"/>
	<path fill="#BA3F15" stroke="#000000" stroke-miterlimit="10" d="M428.361,210.52c0,0,42,11,13,101c3-21,6-50.5,6-50.5
		s4,36.5-14,50.5c0-6,15-55-5-80s-51,3-51,3l-23,20v-20c0,0,3,74,18,91c-7-5-24-40-25-57.5c7,35.5,11,43.5,20,57.5
		c-10-8-21-19-26-49c11,44,11,47,20,54c-20-30-34-40-26-84C339.361,235.52,372.361,181.52,428.361,210.52z"/>
	<path fill="#6CDD66" stroke="#000000" stroke-miterlimit="10" d="M352.111,252.52c0,0,17.75-37,58.25-31c3,1,24,7.25,30,26.5
		c1.25,8.25,3.5,17,0,23.5c-2-8.75-3-17.75-5.75-21s-11-13-19.25-14.5s-21.75-2.25-30,1.5s-20.75,9.5-25.75,25.25
		c-0.75,4.5-2.25,17-1.25,22.25C354.361,275.52,349.861,264.02,352.111,252.52z"/>
</g>
<g id="Good_work_x21_" display="none">
	<path fill="#FDD4BA" stroke="#000000" stroke-miterlimit="10" d="M372.839,348.291c0,0,2.881,23.167,2.135,36.5
		s27.413,6.5,27.413,6.5s-1.16-15.5,3.007-37C392.895,353.458,372.839,348.291,372.839,348.291z"/>
	<path display="inline" fill="#BA3F15" stroke="#000000" stroke-miterlimit="10" d="M372.839,336.184c0,0,4.305,28.741,0.055,41.863
		c-0.75-9.686-0.055-22.807-0.055-22.807s-3.695,34.678-11.945,41.551c6.25-22.181,8.75-41.551,8.75-41.551
		s-2.75,12.809-13.25,26.867c1-13.746,9.188-47.798,9.188-47.798s-0.438,35.302-19.688,49.048c5.5-9.997,14.438-46.55,14.438-46.55
		s-4.688,40.927-22.438,49.049c8.5-15.308,15.75-51.547,15.75-51.547s2,22.181-10.75,31.24c2-6.248,6-17.807,6-17.807
		s-3,19.682-16,24.367c3.5-5.311,15-28.117,13-46.549s6.75-3.749,6.75-3.749l12,2.812l5.5,4.999L372.839,336.184z"/>
	<path display="inline" fill="#BA3F15" stroke="#000000" stroke-miterlimit="10" d="M404.395,357.041c0,0-6,20.75,2.75,28
		c-0.75-6.75,0-24.75,0-24.75s0.75,23.25,12.25,31c-1.5-9.5-7-32.75-7-32.75s3,21.5,11.75,28c-2.25-7.25-4.5-19.25-4.5-19.25
		s1.25,12.75,7.5,18.25c-1.75-8.75-4-32-4-32s-1,14.25,17.5,33.5c-5.25-10.75-10-35-10-35s2.25,20.25,17.75,24
		c-8-10.25-17-23.25-13-39.75c-10-2.25-14.5,2.5-14.5,2.5l-15.5,15.5L404.395,357.041z"/>
	<path display="inline" fill="#FDD4BA" stroke="#000000" stroke-miterlimit="10" d="M347.043,268.791h87.186c0,0,2.667,50-6,70
		c-11.334,16-26,23.333-32,23.333c-6-2-24-5.333-34-24C353.562,322.791,347.043,268.791,347.043,268.791z"/>
	<g display="inline">
		<path d="M406.829,301.175c0,0,0.329-0.213,0.901-0.482s1.389-0.619,2.364-0.893c1.954-0.627,4.545-0.957,7.125-0.89
			c0.645,0.032,1.29,0.058,1.923,0.132c0.634,0.061,1.257,0.154,1.859,0.267c0.602,0.106,1.184,0.245,1.734,0.39
			c0.551,0.143,1.07,0.327,1.55,0.498c0.959,0.326,1.755,0.717,2.312,1.017c0.557,0.299,0.873,0.528,0.873,0.528l-0.008,0.301
			c0,0-1.292,0.012-3.228-0.008c-1.936-0.035-4.517-0.08-7.098-0.126c-2.579-0.097-5.159-0.192-7.094-0.264
			c-1.934-0.087-3.223-0.169-3.223-0.169L406.829,301.175z"/>
	</g>
	<g display="inline">
		<path d="M374.328,301.069c0,0,0.329-0.213,0.901-0.482s1.389-0.619,2.364-0.893c1.954-0.627,4.545-0.957,7.126-0.89
			c0.645,0.032,1.29,0.058,1.923,0.132c0.634,0.061,1.257,0.154,1.859,0.267c0.602,0.107,1.184,0.245,1.734,0.391
			c0.551,0.142,1.07,0.326,1.55,0.497c0.959,0.326,1.755,0.717,2.312,1.017c0.557,0.299,0.873,0.528,0.873,0.528l-0.008,0.301
			c0,0-1.292,0.011-3.228-0.009c-1.936-0.034-4.517-0.079-7.098-0.125c-2.58-0.096-5.159-0.192-7.094-0.264
			c-1.935-0.086-3.223-0.169-3.223-0.169L374.328,301.069z"/>
	</g>
	<path display="inline" stroke="#000000" stroke-miterlimit="10" d="M374.975,330.216c0,0,32.138,12.686,43.555,10.148
		C403.307,346.707,385.123,355.587,374.975,330.216z"/>
	<path display="inline" fill="#ED294F" stroke="#000000" stroke-miterlimit="10" d="M392.127,346.546
		c0.482-0.029,0.966-0.051,1.453-0.051c0.68,0,1.351,0.037,2.017,0.096c-2.611-9.092-17.001-10.052-17.001-10.052
		C382.164,343.808,384.38,343.937,392.127,346.546z"/>
	<g display="inline">
		<path d="M391.887,344.251c0,0-2.063-1.141-4.073-2.355c-0.506-0.301-1.029-0.574-1.492-0.872
			c-0.453-0.312-0.848-0.644-1.173-0.946c-0.655-0.602-1.015-1.116-1.015-1.116l0.057-0.083c0,0,0.609,0.147,1.408,0.537
			c0.401,0.193,0.854,0.439,1.311,0.748c0.446,0.322,0.891,0.711,1.354,1.071c1.865,1.43,3.68,2.935,3.68,2.935L391.887,344.251z"/>
	</g>
	<path display="inline" fill="#FFFFFF" stroke="#000000" stroke-miterlimit="10" d="M376.224,333.073
		c0,0,32.366,11.418,36.324,9.779c3.958-1.641,5.981-2.488,5.981-2.488s-16.703,0.422-43.555-10.148
		C375.643,331.799,376.224,333.073,376.224,333.073z"/>
	<path display="inline" fill="none" stroke="#000000" stroke-miterlimit="10" d="M404.624,294.368c0,0,0,15.836,4.619,21.773
		c0.99,3.629,0.001,6.268-2.309,8.577c-2.311,2.31-9.238,0-9.238,0"/>
	<path display="inline" fill="#BA3F15" stroke="#000000" stroke-miterlimit="10" d="M430.895,262.791c0,0-11,24-17,25
		c2-8,13.75-21.5,13.5-25c-9.5,14.5-12.5,25.5-35.75,33.5c6-4.25,30.5-24,30.75-30.25c-5,6.75-21,24.75-40,30.25
		c9.25-5.5,32.75-21.25,35-29.25c-8,9-21.5,20.75-26.75,22c6.5-5.75,21.25-17,20.25-21.75c-6,9-26.5,26.25-38,27.5
		c11.5-8.25,24.5-23,25.25-26.5c-3.25,5.25-25.25,28-29.25,28c6.25-6.5,23.5-32.25,23.75-36.5c-6.75,12.5-25.5,38.5-30.75,39.75
		c5.5-10,19.5-34,19-39.75c-9.25,17.5-20.75,34.5-22,43c1.5-12.25,17.5-41.75,17.5-41.75s-26.25,20.5-14,58.75
		c-5.5-13.25-8-46.25,3.5-56c-6.25,9.75-10,32.75-6.5,52.25c-4.25-14.75-8.75-39.5,2-51s16.25-16,16.25-16l17.5-2.75l15.75,1.5
		l11,6.25L430.895,262.791z"/>
	<path display="inline" fill="#BA3F15" stroke="#000000" stroke-miterlimit="10" d="M423.895,243.791c0,0,42,11,13,101
		c3-21,6-50.5,6-50.5s4,36.5-14,50.5c0-6,15-55-5-80s-51,3-51,3l-23,20v-20c0,0,3,74,18,91c-7-5-24-40-25-57.5
		c7,35.5,11,43.5,20,57.5c-10-8-21-19-26-49c11,44,11,47,20,54c-20-30-34-40-26-84C334.895,268.791,367.895,214.791,423.895,243.791
		z"/>
	<path display="inline" fill="#6CDD66" stroke="#000000" stroke-miterlimit="10" d="M347.645,285.791c0,0,17.75-37,58.25-31
		c3,1,24,7.25,30,26.5c1.25,8.25,3.5,17,0,23.5c-2-8.75-3-17.75-5.75-21s-11-13-19.25-14.5s-21.75-2.25-30,1.5
		s-20.75,9.5-25.75,25.25c-0.75,4.5-2.25,17-1.25,22.25C349.895,308.791,345.395,297.291,347.645,285.791z"/>
</g>
<g id="Don_x27_t_Know" display="none">
	<path display="inline" fill="#FDD4BA" stroke="#000000" stroke-miterlimit="10" d="M374.839,352.291c0,0,2.881,23.167,2.135,36.5
		s27.413,6.5,27.413,6.5s-1.16-15.5,3.007-37C394.895,357.458,374.839,352.291,374.839,352.291z"/>
	<path display="inline" fill="#BA3F15" stroke="#000000" stroke-miterlimit="10" d="M374.839,340.184c0,0,4.305,28.741,0.055,41.863
		c-0.75-9.686-0.055-22.807-0.055-22.807s-3.695,34.678-11.945,41.551c6.25-22.181,8.75-41.551,8.75-41.551
		s-2.75,12.809-13.25,26.867c1-13.746,9.188-47.798,9.188-47.798s-0.438,35.302-19.688,49.048c5.5-9.997,14.438-46.55,14.438-46.55
		s-4.688,40.927-22.438,49.049c8.5-15.308,15.75-51.547,15.75-51.547s2,22.181-10.75,31.24c2-6.248,6-17.807,6-17.807
		s-3,19.682-16,24.367c3.5-5.311,15-28.117,13-46.549s6.75-3.749,6.75-3.749l12,2.812l5.5,4.999L374.839,340.184z"/>
	<path display="inline" fill="#BA3F15" stroke="#000000" stroke-miterlimit="10" d="M406.395,361.041c0,0-6,20.75,2.75,28
		c-0.75-6.75,0-24.75,0-24.75s0.75,23.25,12.25,31c-1.5-9.5-7-32.75-7-32.75s3,21.5,11.75,28c-2.25-7.25-4.5-19.25-4.5-19.25
		s1.25,12.75,7.5,18.25c-1.75-8.75-4-32-4-32s-1,14.25,17.5,33.5c-5.25-10.75-10-35-10-35s2.25,20.25,17.75,24
		c-8-10.25-17-23.25-13-39.75c-10-2.25-14.5,2.5-14.5,2.5l-15.5,15.5L406.395,361.041z"/>
	<path display="inline" fill="#FDD4BA" stroke="#000000" stroke-miterlimit="10" d="M349.043,272.791h87.186c0,0,2.667,50-6,70
		c-11.334,16-26,23.333-32,23.333c-6-2-24-5.333-34-24C355.562,326.791,349.043,272.791,349.043,272.791z"/>
	<path display="inline" fill="#FFFFFF" stroke="#000000" stroke-miterlimit="10" d="M408.971,312.829
		c-0.892-1.803-1.402-3.901-1.402-6.141c0-6.732,4.622-12.19,10.324-12.19s10.325,5.458,10.325,12.19
		c0,2.602-0.689,5.012-1.865,6.991"/>
	<path display="inline" fill="#62DDF9" d="M417.628,311.694c-0.345-0.938-0.486-2.002-0.367-3.108
		c0.356-3.327,2.931-5.778,5.748-5.476c2.818,0.303,4.813,3.245,4.455,6.571c-0.138,1.286-0.606,2.44-1.292,3.355"/>
	<g display="inline">
		<path d="M406.829,313.175c0,0,0.329-0.213,0.901-0.482s1.389-0.619,2.364-0.893c1.954-0.627,4.545-0.957,7.125-0.89
			c0.645,0.032,1.29,0.058,1.923,0.132c0.634,0.061,1.257,0.154,1.859,0.267c0.602,0.106,1.184,0.245,1.734,0.39
			c0.551,0.143,1.07,0.327,1.55,0.498c0.959,0.326,1.755,0.717,2.312,1.017c0.557,0.299,0.873,0.528,0.873,0.528l-0.008,0.301
			c0,0-1.292,0.012-3.228-0.008c-1.936-0.035-4.517-0.08-7.098-0.126c-2.579-0.097-5.159-0.192-7.094-0.264
			c-1.934-0.087-3.223-0.169-3.223-0.169L406.829,313.175z"/>
	</g>
	<path display="inline" fill="#FFFFFF" stroke="#000000" stroke-miterlimit="10" d="M376.47,312.724
		c-0.892-1.804-1.403-3.902-1.403-6.141c0-6.732,4.623-12.191,10.326-12.191c5.701,0,10.324,5.459,10.324,12.191
		c0,2.602-0.69,5.012-1.865,6.99"/>
	<path display="inline" fill="#62DDF9" d="M385.127,311.589c-0.346-0.938-0.486-2.002-0.367-3.109
		c0.356-3.326,2.931-5.777,5.748-5.476c2.818,0.303,4.813,3.245,4.456,6.571c-0.139,1.286-0.607,2.44-1.293,3.355"/>
	<g display="inline">
		<path d="M374.328,313.069c0,0,0.329-0.214,0.901-0.482c0.572-0.271,1.389-0.619,2.364-0.893c1.954-0.628,4.545-0.958,7.126-0.891
			c0.645,0.033,1.29,0.059,1.923,0.133c0.634,0.061,1.257,0.154,1.859,0.266c0.602,0.107,1.184,0.245,1.734,0.391
			c0.551,0.143,1.07,0.326,1.549,0.498c0.96,0.326,1.756,0.717,2.313,1.016s0.873,0.529,0.873,0.529l-0.008,0.3
			c0,0-1.292,0.012-3.229-0.008c-1.936-0.034-4.516-0.08-7.098-0.126c-2.579-0.096-5.158-0.191-7.094-0.264
			c-1.934-0.086-3.223-0.169-3.223-0.169L374.328,313.069z"/>
	</g>
	<path display="inline" stroke="#000000" stroke-miterlimit="10" d="M381.157,342.039c0,0,21.495,1.451,28.565,4.129
		C400.531,341.69,389.656,335.94,381.157,342.039z"/>
	<path fill="#ED294F" stroke="#000000" stroke-miterlimit="10" d="M394.127,350.546c0.482-0.029,0.966-0.051,1.453-0.051
		c0.68,0,1.351,0.037,2.017,0.096c-2.611-9.092-17.001-10.052-17.001-10.052C384.164,347.808,386.38,347.937,394.127,350.546z"/>
	<g>
		<path display="inline" d="M393.887,348.251c0,0-2.063-1.141-4.073-2.355c-0.506-0.301-1.029-0.574-1.492-0.872
			c-0.453-0.312-0.848-0.644-1.173-0.946c-0.655-0.602-1.015-1.116-1.015-1.116l0.057-0.083c0,0,0.609,0.147,1.408,0.537
			c0.401,0.193,0.854,0.439,1.311,0.748c0.446,0.322,0.891,0.711,1.354,1.071c1.865,1.43,3.68,2.935,3.68,2.935L393.887,348.251z"/>
	</g>
	<path fill="#FFFFFF" stroke="#000000" stroke-miterlimit="10" d="M378.224,337.073c0,0,32.366,11.418,36.324,9.779
		c3.958-1.641,5.981-2.488,5.981-2.488s-16.703,0.422-43.555-10.148C377.643,335.799,378.224,337.073,378.224,337.073z"/>
	<path display="inline" fill="none" stroke="#000000" stroke-miterlimit="10" d="M406.624,298.368c0,0,0,15.836,4.619,21.773
		c0.99,3.629,0.001,6.268-2.309,8.577c-2.311,2.31-9.238,0-9.238,0"/>
	<path display="inline" fill="#BA3F15" stroke="#000000" stroke-miterlimit="10" d="M432.895,266.791c0,0-11,24-17,25
		c2-8,13.75-21.5,13.5-25c-9.5,14.5-12.5,25.5-35.75,33.5c6-4.25,30.5-24,30.75-30.25c-5,6.75-21,24.75-40,30.25
		c9.25-5.5,32.75-21.25,35-29.25c-8,9-21.5,20.75-26.75,22c6.5-5.75,21.25-17,20.25-21.75c-6,9-26.5,26.25-38,27.5
		c11.5-8.25,24.5-23,25.25-26.5c-3.25,5.25-25.25,28-29.25,28c6.25-6.5,23.5-32.25,23.75-36.5c-6.75,12.5-25.5,38.5-30.75,39.75
		c5.5-10,19.5-34,19-39.75c-9.25,17.5-20.75,34.5-22,43c1.5-12.25,17.5-41.75,17.5-41.75s-26.25,20.5-14,58.75
		c-5.5-13.25-8-46.25,3.5-56c-6.25,9.75-10,32.75-6.5,52.25c-4.25-14.75-8.75-39.5,2-51s16.25-16,16.25-16l17.5-2.75l15.75,1.5
		l11,6.25L432.895,266.791z"/>
	<path display="inline" fill="#BA3F15" stroke="#000000" stroke-miterlimit="10" d="M425.895,247.791c0,0,42,11,13,101
		c3-21,6-50.5,6-50.5s4,36.5-14,50.5c0-6,15-55-5-80s-51,3-51,3l-23,20v-20c0,0,3,74,18,91c-7-5-24-40-25-57.5
		c7,35.5,11,43.5,20,57.5c-10-8-21-19-26-49c11,44,11,47,20,54c-20-30-34-40-26-84C336.895,272.791,369.895,218.791,425.895,247.791
		z"/>
	<path display="inline" fill="#6CDD66" stroke="#000000" stroke-miterlimit="10" d="M349.645,289.791c0,0,17.75-37,58.25-31
		c3,1,24,7.25,30,26.5c1.25,8.25,3.5,17,0,23.5c-2-8.75-3-17.75-5.75-21s-11-13-19.25-14.5s-21.75-2.25-30,1.5
		s-20.75,9.5-25.75,25.25c-0.75,4.5-2.25,17-1.25,22.25C351.895,312.791,347.395,301.291,349.645,289.791z"/>
</g>
<g id="Logo" display="none">
	<path display="inline" fill="#FDD4BA" stroke="#000000" stroke-miterlimit="10" d="M372.839,362.291c0,0,2.881,23.167,2.135,36.5
		s27.413,6.5,27.413,6.5s-1.16-15.5,3.007-37C392.895,367.458,372.839,362.291,372.839,362.291z"/>
	<path display="inline" fill="#BA3F15" stroke="#000000" stroke-miterlimit="10" d="M372.839,350.184c0,0,4.305,28.741,0.055,41.863
		c-0.75-9.686-0.055-22.807-0.055-22.807s-3.695,34.678-11.945,41.551c6.25-22.181,8.75-41.551,8.75-41.551
		s-2.75,12.809-13.25,26.867c1-13.746,9.188-47.798,9.188-47.798s-0.438,35.302-19.688,49.048c5.5-9.997,14.438-46.55,14.438-46.55
		s-4.688,40.927-22.438,49.049c8.5-15.308,15.75-51.547,15.75-51.547s2,22.181-10.75,31.24c2-6.248,6-17.807,6-17.807
		s-3,19.682-16,24.367c3.5-5.311,15-28.117,13-46.549s6.75-3.749,6.75-3.749l12,2.812l5.5,4.999L372.839,350.184z"/>
	<path display="inline" fill="#BA3F15" stroke="#000000" stroke-miterlimit="10" d="M404.395,371.041c0,0-6,20.75,2.75,28
		c-0.75-6.75,0-24.75,0-24.75s0.75,23.25,12.25,31c-1.5-9.5-7-32.75-7-32.75s3,21.5,11.75,28c-2.25-7.25-4.5-19.25-4.5-19.25
		s1.25,12.75,7.5,18.25c-1.75-8.75-4-32-4-32s-1,14.25,17.5,33.5c-5.25-10.75-10-35-10-35s2.25,20.25,17.75,24
		c-8-10.25-17-23.25-13-39.75c-10-2.25-14.5,2.5-14.5,2.5l-15.5,15.5L404.395,371.041z"/>
	<path display="inline" fill="#FDD4BA" stroke="#000000" stroke-miterlimit="10" d="M347.043,282.791h87.186c0,0,2.667,50-6,70
		c-11.334,16-26,23.333-32,23.333c-6-2-24-5.333-34-24C353.562,336.791,347.043,282.791,347.043,282.791z"/>
	<path display="inline" fill="#FFFFFF" stroke="#000000" stroke-miterlimit="10" d="M406.971,322.829
		c-0.892-1.803-1.402-3.901-1.402-6.141c0-6.732,4.622-12.19,10.324-12.19s10.325,5.458,10.325,12.19
		c0,2.602-0.689,5.012-1.865,6.991"/>
	<g display="inline">
		<path d="M404.829,323.175c0,0,0.329-0.213,0.901-0.482s1.389-0.619,2.364-0.893c1.954-0.627,4.545-0.957,7.125-0.89
			c0.645,0.032,1.29,0.058,1.923,0.132c0.634,0.061,1.257,0.154,1.859,0.267c0.602,0.106,1.184,0.245,1.734,0.39
			c0.551,0.143,1.07,0.327,1.55,0.498c0.959,0.326,1.755,0.717,2.312,1.017c0.557,0.299,0.873,0.528,0.873,0.528l-0.008,0.301
			c0,0-1.292,0.012-3.228-0.008c-1.936-0.035-4.517-0.08-7.098-0.126c-2.579-0.097-5.159-0.192-7.094-0.264
			c-1.934-0.087-3.223-0.169-3.223-0.169L404.829,323.175z"/>
	</g>
	<path display="inline" fill="#FFFFFF" stroke="#000000" stroke-miterlimit="10" d="M374.47,322.724
		c-0.892-1.804-1.403-3.902-1.403-6.141c0-6.732,4.623-12.191,10.326-12.191c5.701,0,10.324,5.459,10.324,12.191
		c0,2.602-0.69,5.012-1.865,6.99"/>
	<g display="inline">
		<path d="M372.328,323.069c0,0,0.329-0.214,0.901-0.482c0.572-0.271,1.389-0.619,2.364-0.893c1.954-0.628,4.545-0.958,7.126-0.891
			c0.645,0.033,1.29,0.059,1.923,0.133c0.634,0.061,1.257,0.154,1.859,0.266c0.602,0.107,1.184,0.245,1.734,0.391
			c0.551,0.143,1.07,0.326,1.549,0.498c0.96,0.326,1.756,0.717,2.313,1.016s0.873,0.529,0.873,0.529l-0.008,0.3
			c0,0-1.292,0.012-3.229-0.008c-1.936-0.034-4.516-0.08-7.098-0.126c-2.579-0.096-5.158-0.191-7.094-0.264
			c-1.934-0.086-3.223-0.169-3.223-0.169L372.328,323.069z"/>
	</g>
	<path display="inline" stroke="#000000" stroke-miterlimit="10" d="M374.975,344.216c0,0,32.138,12.686,43.555,10.148
		C403.307,360.707,385.123,369.587,374.975,344.216z"/>
	<path display="inline" fill="#ED294F" stroke="#000000" stroke-miterlimit="10" d="M392.127,360.546
		c0.482-0.029,0.966-0.051,1.453-0.051c0.68,0,1.351,0.037,2.017,0.096c-2.611-9.092-17.001-10.052-17.001-10.052
		C382.164,357.808,384.38,357.937,392.127,360.546z"/>
	<g display="inline">
		<path d="M391.887,358.251c0,0-2.063-1.141-4.073-2.355c-0.506-0.301-1.029-0.574-1.492-0.872
			c-0.453-0.312-0.848-0.644-1.173-0.946c-0.655-0.602-1.015-1.116-1.015-1.116l0.057-0.083c0,0,0.609,0.147,1.408,0.537
			c0.401,0.193,0.854,0.439,1.311,0.748c0.446,0.322,0.891,0.711,1.354,1.071c1.865,1.43,3.68,2.935,3.68,2.935L391.887,358.251z"/>
	</g>
	<path display="inline" fill="#FFFFFF" stroke="#000000" stroke-miterlimit="10" d="M376.224,347.073
		c0,0,32.366,11.418,36.324,9.779c3.958-1.641,5.981-2.488,5.981-2.488s-16.703,0.422-43.555-10.148
		C375.643,345.799,376.224,347.073,376.224,347.073z"/>
	<path display="inline" fill="none" stroke="#000000" stroke-miterlimit="10" d="M404.624,308.368c0,0,0,15.836,4.619,21.773
		c0.99,3.629,0.001,6.268-2.309,8.577c-2.311,2.31-9.238,0-9.238,0"/>
	<ellipse display="inline" fill="#62DDF9" cx="385.54" cy="311.963" rx="5.375" ry="5.744"/>
	<path display="inline" fill="#BA3F15" stroke="#000000" stroke-miterlimit="10" d="M430.895,276.791c0,0-11,24-17,25
		c2-8,13.75-21.5,13.5-25c-9.5,14.5-12.5,25.5-35.75,33.5c6-4.25,30.5-24,30.75-30.25c-5,6.75-21,24.75-40,30.25
		c9.25-5.5,32.75-21.25,35-29.25c-8,9-21.5,20.75-26.75,22c6.5-5.75,21.25-17,20.25-21.75c-6,9-26.5,26.25-38,27.5
		c11.5-8.25,24.5-23,25.25-26.5c-3.25,5.25-25.25,28-29.25,28c6.25-6.5,23.5-32.25,23.75-36.5c-6.75,12.5-25.5,38.5-30.75,39.75
		c5.5-10,19.5-34,19-39.75c-9.25,17.5-20.75,34.5-22,43c1.5-12.25,17.5-41.75,17.5-41.75s-26.25,20.5-14,58.75
		c-5.5-13.25-8-46.25,3.5-56c-6.25,9.75-10,32.75-6.5,52.25c-4.25-14.75-8.75-39.5,2-51s16.25-16,16.25-16l17.5-2.75l15.75,1.5
		l11,6.25L430.895,276.791z"/>
	<path display="inline" fill="#BA3F15" stroke="#000000" stroke-miterlimit="10" d="M423.895,257.791c0,0,42,11,13,101
		c3-21,6-50.5,6-50.5s4,36.5-14,50.5c0-6,15-55-5-80s-51,3-51,3l-23,20v-20c0,0,3,74,18,91c-7-5-24-40-25-57.5
		c7,35.5,11,43.5,20,57.5c-10-8-21-19-26-49c11,44,11,47,20,54c-20-30-34-40-26-84C334.895,282.791,367.895,228.791,423.895,257.791
		z"/>
	<path display="inline" fill="#6CDD66" stroke="#000000" stroke-miterlimit="10" d="M347.645,299.791c0,0,17.75-37,58.25-31
		c3,1,24,7.25,30,26.5c1.25,8.25,3.5,17,0,23.5c-2-8.75-3-17.75-5.75-21s-11-13-19.25-14.5s-21.75-2.25-30,1.5
		s-20.75,9.5-25.75,25.25c-0.75,4.5-2.25,17-1.25,22.25C349.895,322.791,345.395,311.291,347.645,299.791z"/>
	<ellipse display="inline" fill="#62DDF9" cx="418.53" cy="312.749" rx="5.375" ry="5.744"/>
</g>
<g id="Cloud">
	<line fill="none" stroke="#000000" stroke-width="0.3" x1="8612" y1="8435.28" x2="8612" y2="8471.28"/>
	<line fill="none" stroke="#000000" stroke-width="0.3" x1="8558" y1="8489.28" x2="8594" y2="8489.28"/>
	<line fill="none" stroke="#000000" stroke-width="0.3" x1="8558" y1="-24276.719" x2="8594" y2="-24276.719"/>
	<line fill="none" stroke="#000000" stroke-width="0.3" x1="8612" y1="-24222.719" x2="8612" y2="-24258.719"/>
	<line fill="none" stroke="#000000" stroke-width="0.3" x1="-24154" y1="8435.28" x2="-24154" y2="8471.28"/>
	<line fill="none" stroke="#000000" stroke-width="0.3" x1="-24100" y1="8489.28" x2="-24136" y2="8489.28"/>
	<line fill="none" stroke="#000000" stroke-width="0.3" x1="-24100" y1="-24276.719" x2="-24136" y2="-24276.719"/>
	<line fill="none" stroke="#000000" stroke-width="0.3" x1="-24154" y1="-24222.719" x2="-24154" y2="-24258.719"/>
</g>
</svg>
