<?xml version="1.0" encoding="utf-8"?>
<!-- Generator: Adobe Illustrator 16.0.0, SVG Export Plug-In . SVG Version: 6.00 Build 0)  -->
<!DOCTYPE svg PUBLIC "-//W3C//DTD SVG 1.1//EN" "http://www.w3.org/Graphics/SVG/1.1/DTD/svg11.dtd">
<svg version="1.1" xmlns="http://www.w3.org/2000/svg" xmlns:xlink="http://www.w3.org/1999/xlink" x="0px" y="0px"
	 width="841.89px" height="595.28px" viewBox="0 0 841.89 595.28" enable-background="new 0 0 841.89 595.28" xml:space="preserve">
<g id="Stranger_Danger" display="none">
	<g display="inline">
		<path fill="#FFFFFF" d="M670,361c0,6.627-5.373,12-12,12H448c-6.627,0-12-5.373-12-12V113c0-6.627,5.373-12,12-12h210
			c6.627,0,12,5.373,12,12V361z"/>
		<path fill="none" stroke="#F7A4A7" stroke-width="3" stroke-miterlimit="10" stroke-dasharray="1.9987,1.9987" d="M670,361
			c0,6.627-5.373,12-12,12H448c-6.627,0-12-5.373-12-12V113c0-6.627,5.373-12,12-12h210c6.627,0,12,5.373,12,12V361z"/>
	</g>
	<text transform="matrix(1 0 0 1 483.1816 328.6406)" fill="#FFFFFF" font-family="'MyriadPro-Regular'" font-size="280">1</text>
	<path display="inline" fill="#94D5EC" d="M666.406,356.656c0,6.413-5.199,11.612-11.613,11.612H451.57
		c-6.413,0-11.613-5.199-11.613-11.612V116.658c0-6.414,5.2-11.612,11.613-11.612h203.223c6.414,0,11.613,5.199,11.613,11.612
		V356.656z"/>
	<g id="Don_x27_t_Know" display="inline">
		<path fill="#0C0C0C" stroke="#94D5EC" stroke-miterlimit="10" d="M534.839,268.29c0,0,2.882,23.167,2.136,36.5
			s27.413,6.5,27.413,6.5s-1.16-15.5,3.007-37C554.896,273.458,534.839,268.29,534.839,268.29z"/>
		<path fill="#0C0C0C" stroke="#94D5EC" stroke-miterlimit="10" d="M534.839,256.184c0,0,4.306,28.741,0.056,41.863
			c-0.75-9.687-0.056-22.808-0.056-22.808s-3.694,34.679-11.944,41.551c6.25-22.181,8.75-41.551,8.75-41.551
			s-2.75,12.81-13.25,26.867c1-13.746,9.188-47.798,9.188-47.798s-0.438,35.302-19.688,49.048c5.5-9.997,14.438-46.55,14.438-46.55
			s-4.688,40.927-22.438,49.049c8.5-15.308,15.75-51.547,15.75-51.547s2,22.181-10.75,31.24c2-6.248,6-17.808,6-17.808
			s-3,19.683-16,24.367c3.5-5.311,15-28.117,13-46.549s6.75-3.749,6.75-3.749l12,2.812l5.5,4.999L534.839,256.184z"/>
		<path fill="#0C0C0C" stroke="#94D5EC" stroke-miterlimit="10" d="M566.396,277.04c0,0-6,20.75,2.75,28c-0.75-6.75,0-24.75,0-24.75
			s0.75,23.25,12.25,31c-1.5-9.5-7-32.75-7-32.75s3,21.5,11.75,28c-2.25-7.25-4.5-19.25-4.5-19.25s1.25,12.75,7.5,18.25
			c-1.75-8.75-4-32-4-32s-1,14.25,17.5,33.5c-5.25-10.75-10-35-10-35s2.25,20.25,17.75,24c-8-10.25-17-23.25-13-39.75
			c-10-2.25-14.5,2.5-14.5,2.5l-15.5,15.5L566.396,277.04z"/>
		<path fill="#0C0C0C" stroke="#94D5EC" stroke-miterlimit="10" d="M509.043,188.791h87.187c0,0,2.667,49.999-6,69.999
			c-11.334,16-26,23.333-32,23.333c-6-2-24-5.333-34-24C515.563,242.79,509.043,188.791,509.043,188.791z"/>
		<path fill="#0C0C0C" stroke="#94D5EC" stroke-miterlimit="10" d="M568.972,228.828c-0.893-1.803-1.402-3.9-1.402-6.141
			c0-6.731,4.622-12.189,10.324-12.189s10.325,5.458,10.325,12.189c0,2.602-0.689,5.012-1.865,6.991"/>
		<path fill="#0C0C0C" stroke="#94D5EC" stroke-miterlimit="10" d="M577.629,227.693c-0.346-0.938-0.486-2.002-0.367-3.107
			c0.355-3.327,2.931-5.778,5.748-5.477c2.817,0.304,4.813,3.245,4.455,6.571c-0.139,1.286-0.606,2.439-1.292,3.354"/>
		<g>
			<path fill="#0C0C0C" stroke="#94D5EC" stroke-miterlimit="10" d="M566.829,229.175c0,0,0.329-0.213,0.901-0.482
				c0.572-0.269,1.389-0.619,2.364-0.893c1.954-0.627,4.545-0.957,7.125-0.891c0.645,0.032,1.29,0.059,1.923,0.132
				c0.634,0.062,1.257,0.154,1.859,0.268c0.602,0.105,1.184,0.245,1.733,0.39c0.551,0.144,1.07,0.327,1.55,0.498
				c0.959,0.326,1.755,0.717,2.313,1.018c0.557,0.299,0.873,0.527,0.873,0.527l-0.008,0.301c0,0-1.292,0.013-3.229-0.008
				c-1.936-0.035-4.517-0.08-7.098-0.126c-2.579-0.097-5.159-0.191-7.094-0.264c-1.935-0.087-3.224-0.169-3.224-0.169
				L566.829,229.175z"/>
		</g>
		<path fill="#0C0C0C" stroke="#94D5EC" stroke-miterlimit="10" d="M536.471,228.724c-0.893-1.804-1.403-3.902-1.403-6.141
			c0-6.732,4.623-12.191,10.326-12.191c5.7,0,10.323,5.459,10.323,12.191c0,2.602-0.689,5.012-1.864,6.989"/>
		<path fill="#0C0C0C" stroke="#94D5EC" stroke-miterlimit="10" d="M545.127,227.589c-0.346-0.938-0.485-2.002-0.366-3.109
			c0.355-3.326,2.931-5.776,5.747-5.476c2.818,0.303,4.813,3.245,4.456,6.57c-0.139,1.286-0.606,2.44-1.293,3.355"/>
		<g>
			<path fill="#0C0C0C" stroke="#94D5EC" stroke-miterlimit="10" d="M534.328,229.068c0,0,0.329-0.214,0.901-0.481
				c0.571-0.271,1.389-0.619,2.364-0.894c1.953-0.628,4.545-0.958,7.126-0.891c0.645,0.033,1.29,0.059,1.923,0.133
				c0.634,0.061,1.257,0.154,1.858,0.266c0.603,0.107,1.185,0.245,1.734,0.392c0.551,0.143,1.07,0.326,1.549,0.498
				c0.96,0.325,1.756,0.717,2.313,1.016c0.557,0.299,0.873,0.529,0.873,0.529l-0.009,0.3c0,0-1.292,0.012-3.229-0.008
				c-1.937-0.034-4.516-0.08-7.098-0.126c-2.579-0.097-5.158-0.191-7.095-0.265c-1.934-0.086-3.223-0.169-3.223-0.169
				L534.328,229.068z"/>
		</g>
		<path fill="#0C0C0C" stroke="#94D5EC" stroke-miterlimit="10" d="M541.157,258.038c0,0,21.495,1.451,28.565,4.13
			C560.531,257.689,549.656,251.939,541.157,258.038z"/>
		<path display="none" fill="#0C0C0C" stroke="#94D5EC" stroke-miterlimit="10" d="M554.127,266.546
			c0.482-0.029,0.967-0.052,1.453-0.052c0.681,0,1.352,0.037,2.018,0.097c-2.611-9.093-17.001-10.053-17.001-10.053
			C544.164,263.808,546.38,263.937,554.127,266.546z"/>
		<g display="none">
			<path display="inline" fill="#0C0C0C" stroke="#94D5EC" stroke-miterlimit="10" d="M553.888,264.251c0,0-2.063-1.142-4.073-2.355
				c-0.506-0.301-1.029-0.574-1.492-0.872c-0.453-0.312-0.848-0.644-1.173-0.946c-0.655-0.602-1.016-1.115-1.016-1.115l0.058-0.083
				c0,0,0.608,0.146,1.408,0.536c0.4,0.193,0.854,0.439,1.311,0.748c0.446,0.322,0.891,0.711,1.354,1.071
				c1.864,1.43,3.68,2.936,3.68,2.936L553.888,264.251z"/>
		</g>
		<path display="none" fill="#0C0C0C" stroke="#94D5EC" stroke-miterlimit="10" d="M538.225,253.072c0,0,32.366,11.418,36.324,9.779
			c3.958-1.641,5.98-2.488,5.98-2.488s-16.703,0.422-43.555-10.147C537.644,251.799,538.225,253.072,538.225,253.072z"/>
		<path fill="#0C0C0C" stroke="#94D5EC" stroke-miterlimit="10" d="M566.624,214.368c0,0,0,15.835,4.619,21.772
			c0.99,3.629,0.001,6.268-2.309,8.577c-2.312,2.31-9.238,0-9.238,0"/>
		<path fill="#0C0C0C" stroke="#94D5EC" stroke-miterlimit="10" d="M592.896,182.791c0,0-11,24-17,25c2-8,13.75-21.5,13.5-25
			c-9.5,14.5-12.5,25.5-35.75,33.5c6-4.25,30.5-24,30.75-30.25c-5,6.75-21,24.75-40,30.25c9.25-5.5,32.75-21.25,35-29.25
			c-8,9-21.5,20.75-26.75,22c6.5-5.75,21.25-17,20.25-21.75c-6,9-26.5,26.25-38,27.5c11.5-8.25,24.5-23,25.25-26.5
			c-3.25,5.25-25.25,28-29.25,28c6.25-6.5,23.5-32.25,23.75-36.5c-6.75,12.5-25.5,38.5-30.75,39.75c5.5-10,19.5-34,19-39.75
			c-9.25,17.5-20.75,34.5-22,42.999c1.5-12.249,17.5-41.749,17.5-41.749s-26.25,20.5-14,58.749c-5.5-13.25-8-46.249,3.5-55.999
			c-6.25,9.75-10,32.75-6.5,52.249c-4.25-14.749-8.75-39.499,2-50.999s16.25-16,16.25-16l17.5-2.75l15.75,1.5l11,6.25
			L592.896,182.791z"/>
		<path fill="#0C0C0C" stroke="#94D5EC" stroke-miterlimit="10" d="M585.896,163.791c0,0,42,11,13,100.999c3-21,6-50.499,6-50.499
			s4,36.499-14,50.499c0-6,15-54.999-5-79.999s-51,3-51,3l-23,20v-20c0,0,3,73.999,18,90.999c-7-5-24-40-25-57.499
			c7,35.499,11,43.499,20,57.499c-10-8-21-19-26-49c11,44,11,47,20,54c-20-30-34-40-26-83.999
			C496.896,188.791,529.896,134.791,585.896,163.791z"/>
		<path fill="#0C0C0C" stroke="#94D5EC" stroke-miterlimit="10" d="M509.646,205.791c0,0,17.75-37,58.25-31c3,1,24,7.25,30,26.5
			c1.25,8.25,3.5,17,0,23.499c-2-8.749-3-17.749-5.75-20.999s-11-13-19.25-14.5s-21.75-2.25-30,1.5s-20.75,9.5-25.75,25.25
			c-0.75,4.5-2.25,16.999-1.25,22.249C511.896,228.79,507.396,217.291,509.646,205.791z"/>
	</g>
	
		<circle display="inline" fill="none" stroke="#F7A4A7" stroke-width="20" stroke-miterlimit="10" cx="551.5" cy="233.834" r="94.5"/>
	
		<line display="inline" fill="none" stroke="#F7A4A7" stroke-width="20" stroke-miterlimit="10" x1="481.797" y1="297.64" x2="616.604" y2="162.833"/>
</g>
<g id="Netty" display="none">
	<g id="Don_x27_t_Know_1_" display="inline">
		<path fill="#FDD4BB" stroke="#010101" stroke-miterlimit="10" d="M398.839,227.29c0,0,2.882,23.167,2.136,36.5
			s27.413,6.5,27.413,6.5s-1.16-15.5,3.007-37C418.896,232.458,398.839,227.29,398.839,227.29z"/>
		<path fill="#BA4126" stroke="#010101" stroke-miterlimit="10" d="M398.839,215.184c0,0,4.306,28.741,0.056,41.863
			c-0.75-9.687-0.056-22.808-0.056-22.808s-3.694,34.679-11.944,41.551c6.25-22.181,8.75-41.551,8.75-41.551
			s-2.75,12.81-13.25,26.867c1-13.746,9.188-47.798,9.188-47.798s-0.438,35.302-19.688,49.048c5.5-9.997,14.438-46.55,14.438-46.55
			s-4.688,40.927-22.438,49.049c8.5-15.308,15.75-51.547,15.75-51.547s2,22.181-10.75,31.24c2-6.248,6-17.808,6-17.808
			s-3,19.683-16,24.367c3.5-5.311,15-28.117,13-46.549s6.75-3.749,6.75-3.749l12,2.812l5.5,4.999L398.839,215.184z"/>
		<path fill="#BA4126" stroke="#010101" stroke-miterlimit="10" d="M430.396,236.04c0,0-6,20.75,2.75,28c-0.75-6.75,0-24.75,0-24.75
			s0.75,23.25,12.25,31c-1.5-9.5-7-32.75-7-32.75s3,21.5,11.75,28c-2.25-7.25-4.5-19.25-4.5-19.25s1.25,12.75,7.5,18.25
			c-1.75-8.75-4-32-4-32s-1,14.25,17.5,33.5c-5.25-10.75-10-35-10-35s2.25,20.25,17.75,24c-8-10.25-17-23.25-13-39.75
			c-10-2.25-14.5,2.5-14.5,2.5l-15.5,15.5L430.396,236.04z"/>
		<path fill="#FDD4BB" stroke="#010101" stroke-miterlimit="10" d="M373.043,147.791h87.187c0,0,2.667,49.999-6,69.999
			c-11.334,16-26,23.333-32,23.333c-6-2-24-5.333-34-24C379.563,201.79,373.043,147.791,373.043,147.791z"/>
		<path fill="#FFFFFF" stroke="#010101" stroke-miterlimit="10" d="M432.972,187.828c-0.893-1.803-1.402-3.9-1.402-6.141
			c0-6.731,4.622-12.189,10.324-12.189s10.325,5.458,10.325,12.189c0,2.602-0.689,5.012-1.865,6.991"/>
		<path fill="#73CFEC" d="M441.629,186.693c-0.346-0.938-0.486-2.002-0.367-3.107c0.355-3.327,2.931-5.778,5.748-5.477
			c2.817,0.304,4.813,3.245,4.455,6.571c-0.139,1.286-0.606,2.439-1.292,3.354"/>
		<g>
			<path fill="#010101" d="M430.829,188.175c0,0,0.329-0.213,0.901-0.482c0.572-0.269,1.389-0.619,2.364-0.893
				c1.954-0.627,4.545-0.957,7.125-0.891c0.645,0.032,1.29,0.059,1.923,0.132c0.634,0.062,1.257,0.154,1.859,0.268
				c0.602,0.105,1.184,0.245,1.733,0.39c0.551,0.144,1.07,0.327,1.55,0.498c0.959,0.326,1.755,0.717,2.313,1.018
				c0.557,0.299,0.873,0.527,0.873,0.527l-0.008,0.301c0,0-1.292,0.013-3.229-0.008c-1.936-0.035-4.517-0.08-7.098-0.126
				c-2.579-0.097-5.159-0.191-7.094-0.264c-1.935-0.087-3.224-0.169-3.224-0.169L430.829,188.175z"/>
		</g>
		<path fill="#FFFFFF" stroke="#010101" stroke-miterlimit="10" d="M400.471,187.724c-0.893-1.804-1.403-3.902-1.403-6.141
			c0-6.732,4.623-12.191,10.326-12.191c5.7,0,10.323,5.459,10.323,12.191c0,2.602-0.689,5.012-1.864,6.989"/>
		<path fill="#73CFEC" d="M409.127,186.589c-0.346-0.938-0.485-2.002-0.366-3.109c0.355-3.326,2.931-5.776,5.747-5.476
			c2.818,0.303,4.813,3.245,4.456,6.57c-0.139,1.286-0.606,2.44-1.293,3.355"/>
		<g>
			<path fill="#010101" d="M398.328,188.068c0,0,0.329-0.214,0.901-0.481c0.571-0.271,1.389-0.619,2.364-0.894
				c1.953-0.628,4.545-0.958,7.126-0.891c0.645,0.033,1.29,0.059,1.923,0.133c0.634,0.061,1.257,0.154,1.858,0.266
				c0.603,0.107,1.185,0.245,1.734,0.392c0.551,0.143,1.07,0.326,1.549,0.498c0.96,0.325,1.756,0.717,2.313,1.016
				c0.557,0.299,0.873,0.529,0.873,0.529l-0.009,0.3c0,0-1.292,0.012-3.229-0.008c-1.937-0.034-4.516-0.08-7.098-0.126
				c-2.579-0.097-5.158-0.191-7.095-0.265c-1.934-0.086-3.223-0.169-3.223-0.169L398.328,188.068z"/>
		</g>
		<path fill="#010101" stroke="#010101" stroke-miterlimit="10" d="M405.157,217.038c0,0,21.495,1.451,28.565,4.13
			C424.531,216.689,413.656,210.939,405.157,217.038z"/>
		<path display="none" fill="#ED2D50" stroke="#010101" stroke-miterlimit="10" d="M418.127,225.546
			c0.482-0.029,0.967-0.052,1.453-0.052c0.681,0,1.352,0.037,2.018,0.097c-2.611-9.093-17.001-10.053-17.001-10.053
			C408.164,222.808,410.38,222.937,418.127,225.546z"/>
		<g display="none">
			<path display="inline" fill="#010101" d="M417.888,223.251c0,0-2.063-1.142-4.073-2.355c-0.506-0.301-1.029-0.574-1.492-0.872
				c-0.453-0.312-0.848-0.644-1.173-0.946c-0.655-0.602-1.016-1.115-1.016-1.115l0.058-0.083c0,0,0.608,0.146,1.408,0.536
				c0.4,0.193,0.854,0.439,1.311,0.748c0.446,0.322,0.891,0.711,1.354,1.071c1.864,1.43,3.68,2.936,3.68,2.936L417.888,223.251z"/>
		</g>
		<path display="none" fill="#FFFFFF" stroke="#010101" stroke-miterlimit="10" d="M402.225,212.072c0,0,32.366,11.418,36.324,9.779
			c3.958-1.641,5.98-2.488,5.98-2.488s-16.703,0.422-43.555-10.147C401.644,210.799,402.225,212.072,402.225,212.072z"/>
		<path fill="none" stroke="#010101" stroke-miterlimit="10" d="M430.624,173.368c0,0,0,15.835,4.619,21.772
			c0.99,3.629,0.001,6.268-2.309,8.577c-2.312,2.31-9.238,0-9.238,0"/>
		<path fill="#BA4126" stroke="#010101" stroke-miterlimit="10" d="M456.896,141.791c0,0-11,24-17,25c2-8,13.75-21.5,13.5-25
			c-9.5,14.5-12.5,25.5-35.75,33.5c6-4.25,30.5-24,30.75-30.25c-5,6.75-21,24.75-40,30.25c9.25-5.5,32.75-21.25,35-29.25
			c-8,9-21.5,20.75-26.75,22c6.5-5.75,21.25-17,20.25-21.75c-6,9-26.5,26.25-38,27.5c11.5-8.25,24.5-23,25.25-26.5
			c-3.25,5.25-25.25,28-29.25,28c6.25-6.5,23.5-32.25,23.75-36.5c-6.75,12.5-25.5,38.5-30.75,39.75c5.5-10,19.5-34,19-39.75
			c-9.25,17.5-20.75,34.5-22,42.999c1.5-12.249,17.5-41.749,17.5-41.749s-26.25,20.5-14,58.749c-5.5-13.25-8-46.249,3.5-55.999
			c-6.25,9.75-10,32.75-6.5,52.249c-4.25-14.749-8.75-39.499,2-50.999s16.25-16,16.25-16l17.5-2.75l15.75,1.5l11,6.25
			L456.896,141.791z"/>
		<path fill="#BA4126" stroke="#010101" stroke-miterlimit="10" d="M449.896,122.791c0,0,42,11,13,100.999c3-21,6-50.499,6-50.499
			s4,36.499-14,50.499c0-6,15-54.999-5-79.999s-51,3-51,3l-23,20v-20c0,0,3,73.999,18,90.999c-7-5-24-40-25-57.499
			c7,35.499,11,43.499,20,57.499c-10-8-21-19-26-49c11,44,11,47,20,54c-20-30-34-40-26-83.999
			C360.896,147.791,393.896,93.791,449.896,122.791z"/>
		<path fill="#7CC364" stroke="#010101" stroke-miterlimit="10" d="M373.646,164.791c0,0,17.75-37,58.25-31c3,1,24,7.25,30,26.5
			c1.25,8.25,3.5,17,0,23.499c-2-8.749-3-17.749-5.75-20.999s-11-13-19.25-14.5s-21.75-2.25-30,1.5s-20.75,9.5-25.75,25.25
			c-0.75,4.5-2.25,16.999-1.25,22.249C375.896,187.79,371.396,176.291,373.646,164.791z"/>
	</g>
</g>
<g id="The_Internet" display="none">
	<g display="inline">
		<path fill="#FFFFFF" d="M537,309c0,6.627-5.373,12-12,12H315c-6.627,0-12-5.373-12-12V61c0-6.627,5.373-12,12-12h210
			c6.627,0,12,5.373,12,12V309z"/>
		<path fill="none" stroke="#F7A4A7" stroke-width="3" stroke-miterlimit="10" stroke-dasharray="1.9987,1.9987" d="M537,309
			c0,6.627-5.373,12-12,12H315c-6.627,0-12-5.373-12-12V61c0-6.627,5.373-12,12-12h210c6.627,0,12,5.373,12,12V309z"/>
	</g>
	<path display="inline" fill="#94D5EC" d="M533.406,304.656c0,6.413-5.199,11.612-11.613,11.612H318.57
		c-6.413,0-11.613-5.199-11.613-11.612V64.658c0-6.414,5.2-11.612,11.613-11.612h203.223c6.414,0,11.613,5.199,11.613,11.612
		V304.656z"/>
</g>
<g id="Personal_Information" display="none">
	<g display="inline">
		<path fill="#FFFFFF" d="M537,309c0,6.627-5.373,12-12,12H315c-6.627,0-12-5.373-12-12V61c0-6.627,5.373-12,12-12h210
			c6.627,0,12,5.373,12,12V309z"/>
		<path fill="none" stroke="#F7A4A7" stroke-width="3" stroke-miterlimit="10" stroke-dasharray="1.9987,1.9987" d="M537,309
			c0,6.627-5.373,12-12,12H315c-6.627,0-12-5.373-12-12V61c0-6.627,5.373-12,12-12h210c6.627,0,12,5.373,12,12V309z"/>
	</g>
	<path display="inline" fill="#94D5EC" d="M533.406,304.656c0,6.413-5.199,11.612-11.613,11.612H318.57
		c-6.413,0-11.613-5.199-11.613-11.612V64.658c0-6.414,5.2-11.612,11.613-11.612h203.223c6.414,0,11.613,5.199,11.613,11.612
		V304.656z"/>
</g>
<g id="Sharing" display="none">
	<g display="inline">
		<path fill="#FFFFFF" d="M537,309c0,6.627-5.373,12-12,12H315c-6.627,0-12-5.373-12-12V61c0-6.627,5.373-12,12-12h210
			c6.627,0,12,5.373,12,12V309z"/>
		<path fill="none" stroke="#F7A4A7" stroke-width="3" stroke-miterlimit="10" stroke-dasharray="1.9987,1.9987" d="M537,309
			c0,6.627-5.373,12-12,12H315c-6.627,0-12-5.373-12-12V61c0-6.627,5.373-12,12-12h210c6.627,0,12,5.373,12,12V309z"/>
	</g>
	<path display="inline" fill="#94D5EC" d="M533.406,304.656c0,6.413-5.199,11.612-11.613,11.612H318.57
		c-6.413,0-11.613-5.199-11.613-11.612V64.658c0-6.414,5.2-11.612,11.613-11.612h203.223c6.414,0,11.613,5.199,11.613,11.612
		V304.656z"/>
</g>
<g id="Cyber_Bullying" display="none">
	<g display="inline">
		<path fill="#FFFFFF" d="M537,309c0,6.627-5.373,12-12,12H315c-6.627,0-12-5.373-12-12V61c0-6.627,5.373-12,12-12h210
			c6.627,0,12,5.373,12,12V309z"/>
		<path fill="none" stroke="#F7A4A7" stroke-width="3" stroke-miterlimit="10" stroke-dasharray="1.9987,1.9987" d="M537,309
			c0,6.627-5.373,12-12,12H315c-6.627,0-12-5.373-12-12V61c0-6.627,5.373-12,12-12h210c6.627,0,12,5.373,12,12V309z"/>
	</g>
	<path display="inline" fill="#94D5EC" d="M533.406,304.656c0,6.413-5.199,11.612-11.613,11.612H318.57
		c-6.413,0-11.613-5.199-11.613-11.612V64.658c0-6.414,5.2-11.612,11.613-11.612h203.223c6.414,0,11.613,5.199,11.613,11.612
		V304.656z"/>
</g>
<g id="Protocol" display="none">
	<g display="inline">
		<path fill="#FFFFFF" d="M537,309c0,6.627-5.373,12-12,12H315c-6.627,0-12-5.373-12-12V61c0-6.627,5.373-12,12-12h210
			c6.627,0,12,5.373,12,12V309z"/>
		<path fill="none" stroke="#F7A4A7" stroke-width="3" stroke-miterlimit="10" stroke-dasharray="1.9987,1.9987" d="M537,309
			c0,6.627-5.373,12-12,12H315c-6.627,0-12-5.373-12-12V61c0-6.627,5.373-12,12-12h210c6.627,0,12,5.373,12,12V309z"/>
	</g>
	<path display="inline" fill="#94D5EC" d="M533.406,304.656c0,6.413-5.199,11.612-11.613,11.612H318.57
		c-6.413,0-11.613-5.199-11.613-11.612V64.658c0-6.414,5.2-11.612,11.613-11.612h203.223c6.414,0,11.613,5.199,11.613,11.612
		V304.656z"/>
</g>
<g id="Logo_-_Top">
	<text transform="matrix(1 0 0 1 21.1069 328)" fill="#94D5EC" font-family="'VarianeScript'" font-size="270">Cyber Netty</text>
</g>
</svg>
